<svg id="Layer_1" data-name="Layer 1" xmlns="http://www.w3.org/2000/svg" viewBox="0 0 655.5 638.6"><defs><style>.cls-1{fill:#1389fd;}.cls-2{fill:none;stroke:#1389fd;stroke-miterlimit:10;stroke-width:54px;}</style></defs><title>logo</title><polygon class="cls-1" points="381.8 477.9 279.1 479.2 107.5 307.6 211.8 307.9 357.4 453.5 381.8 477.9"/><path class="cls-1" d="M502,251.8a107.8,107.8,0,0,1-5.8,35.2,109,109,0,0,1-68.5,67.9L359.2,287h35a35.3,35.3,0,1,0,0-70.5H288.1L213.9,143H393.2A108.5,108.5,0,0,1,502,251.8Z" transform="translate(-127.2 19.3)"/><polygon class="cls-1" points="467.7 162.3 467.7 370 395.3 406.8 395.3 162.3 467.7 162.3"/><polygon class="cls-1" points="564.3 475.7 564.3 478.9 395.3 478.9 395.3 430.8 524.8 430.8 564.3 475.7"/><ellipse class="cls-2" cx="327.7" cy="319.3" rx="300.7" ry="292.3"/></svg>